Coordinates
version=1
nRows=11
nColumns=36
inDegrees=yes

Units are S.I. units (second, meters, Newtons, ...)
If the header above contains a line with 'inDegrees', this indicates whether rotational values are in degrees (yes) or radians (no).

endheader
time	pelvis_tilt	pelvis_list	pelvis_rotation	pelvis_tx	pelvis_ty	pelvis_tz	hip_flexion_r	hip_adduction_r	hip_rotation_r	knee_angle_r	knee_angle_r_beta	ankle_angle_r	subtalar_angle_r	mtp_angle_r	hip_flexion_l	hip_adduction_l	hip_rotation_l	knee_angle_l	knee_angle_l_beta	ankle_angle_l	subtalar_angle_l	mtp_angle_l	lumbar_extension	lumbar_bending	lumbar_rotation	arm_flex_r	arm_add_r	arm_rot_r	elbow_flex_r	pro_sup_r	arm_flex_l	arm_add_l	arm_rot_l	elbow_flex_l	pro_sup_l
      3.71250000	      5.98419567	      3.21020056	     12.39389019	      0.20814025	      0.99996087	     -0.03575492	     -0.15398324	     -3.20593213	      0.77176473	     12.03104458	      0.20998134	      8.14100697	    -17.96394209	     -7.49999987	      6.92334479	     -3.15663786	      7.85747412	     12.53475124	      0.21877268	     12.83938567	    -11.17359111	     -7.49999987	    -10.77643121	     -3.45583174	     12.80216147	     58.27750948	     -8.17201009	     36.54824959	     85.93034234	     78.05756581	     28.54858321	    -19.69022181	      9.06342332	    103.72302182	     59.99140078
      3.71666670	      6.08910262	      3.26006087	     12.51962832	      0.20603627	      1.00098062	     -0.03490535	     -0.28460957	     -3.15331832	      0.62884704	     11.91572278	      0.20796860	      8.05056940	    -18.04738892	     -7.49999987	      6.93045381	     -3.19619829	      7.82637136	     12.50186480	      0.21819870	     12.62765246	    -11.34608579	     -7.49999987	    -10.90220412	     -3.47986263	     13.01847948	     57.94071973	     -8.30156054	     36.86241090	     86.69706154	     78.12070850	     28.01677733	    -19.54502903	      9.00260838	    103.50403564	     60.03731946
      3.72083330	      6.20212984	      3.29620975	     12.68435376	      0.20521169	      1.00098316	     -0.03320025	     -0.42839118	     -3.09728367	      0.31971688	     11.74099762	      0.20491907	      8.10918498	    -17.87102471	     -7.49999987	      6.92905470	     -3.24274898	      7.82597735	     12.44692765	      0.21723987	     12.50630590	    -11.23615749	     -7.49999987	    -11.04214156	     -3.55535831	     13.22164419	     57.55483386	     -8.52395936	     37.05461389	     87.36227675	     77.74162508	     27.50197224	    -19.27269097	      8.83497633	    103.13469490	     60.08153230
      3.72500000	      6.28617304	      3.36229561	     12.84438874	      0.20380818	      0.99854213	     -0.03272826	     -0.51236299	     -3.09487505	      0.08306418	     11.63918476	      0.20314210	      8.11811983	    -17.97795786	     -7.49999987	      6.95526011	     -3.21963004	      7.88450839	     12.43443101	      0.21702176	     12.48095492	    -11.16286502	     -7.49999987	    -11.22552712	     -3.60759165	     13.51552374	     57.12035002	     -8.98784366	     37.23090094	     88.44922714	     77.54883816	     26.83381414	    -18.93248545	      8.57411437	    103.15864394	     60.13285002
      3.72916670	      6.35590447	      3.37837119	     12.98317358	      0.20247912	      0.99575683	     -0.03171129	     -0.50358012	     -3.07401099	     -0.19295913	     11.62141099	      0.20283189	      8.29106425	    -18.02249974	     -7.49999987	      7.06761874	     -3.22337450	      7.99846183	     12.50711774	      0.21829038	     12.59187998	    -11.19776521	     -7.49999987	    -11.31047996	     -3.58142320	     13.78267715	     56.65041918	     -9.44746971	     37.28980494	     89.24802057	     77.07679224	     26.30926247	    -18.66707581	      8.34662354	    103.16259185	     60.18267617
      3.73333330	      6.32407547	      3.39893660	     13.34553569	      0.19905884	      0.99560736	     -0.02991764	     -0.33522901	     -2.99997120	     -0.11564584	     11.74126985	      0.20492382	      8.16261551	    -18.32788935	     -7.49999987	      7.38994691	     -3.24628223	      7.98085803	     12.68100074	      0.22132522	     12.17135907	    -11.61645360	     -7.49999987	    -11.44087152	     -3.61950518	     13.93646472	     56.16019281	     -9.87171573	     37.21798128	     90.19386171	     77.46897620	     25.84748072	    -18.33390411	      8.13860214	    103.15742271	     60.20756910
      3.73750000	      6.18923024	      3.39090263	     13.60765083	      0.19739807	      0.99456999	     -0.02877136	     -0.00841253	     -2.94066564	     -0.01646407	     11.88494881	      0.20743149	      8.22388792	    -18.54329193	     -7.49999987	      7.86646210	     -3.24000217	      8.24874108	     12.99438579	      0.22679482	     11.83428844	    -11.74399119	     -7.49999987	    -11.24850277	     -3.66627166	     14.60643606	     55.20532807	    -10.58677076	     36.11103490	     91.21936311	     83.19150315	     25.51928040	    -17.65678515	      8.42045819	    102.61451814	     60.24308625
      3.74166670	      6.22960513	      3.36386762	     13.94251614	      0.19646004	      0.99533299	     -0.02737465	      0.00088941	     -2.80698040	     -0.02776622	     11.77595117	      0.20552912	      8.36034941	    -18.39438236	     -7.49999987	      8.11328662	     -3.34038485	      8.44941214	     13.10673586	      0.22875569	     11.67610260	    -11.58293740	     -7.49999987	    -11.29719841	     -3.53313820	     14.76894313	     54.70719877	    -10.96178239	     36.21840739	     91.55572505	     82.14221799	     24.53707448	    -17.22324533	      8.01005668	    102.47552326	     60.21550294
      3.74583330	      6.13760410	      3.35428892	     14.09062058	      0.19451359	      0.99399353	     -0.02571235	      0.17168553	     -2.70849819	     -0.01435532	     11.77452589	      0.20550424	      8.35379601	    -18.81759591	     -7.49999987	      8.47306796	     -3.38052617	      8.66487537	     13.21248736	      0.23060141	     11.74037047	    -11.53934970	     -7.49999987	    -11.28064460	     -3.63262484	     14.82394171	     54.31853891	    -11.08074944	     36.35969631	     92.13199003	     81.75697145	     24.09132245	    -17.15251109	      7.74287032	    102.34101408	     60.17523193
      3.75000000	      6.08680331	      3.35088313	     14.21653119	      0.19349012	      0.99653539	     -0.02616709	      0.20220072	     -2.68586582	     -0.15587384	     11.61915780	      0.20279256	      8.35632247	    -18.88968140	     -7.49999987	      8.69794246	     -3.38789639	      8.93542303	     13.16606206	      0.22979113	     11.77731526	    -11.34884773	     -7.49999987	    -11.25232458	     -3.64180802	     14.86449473	     53.72814589	    -11.27620110	     36.60149201	     92.76093153	     81.24292237	     23.48355007	    -16.91444859	      7.48639541	    101.89492073	     60.12245149
      3.75416670	      5.94720407	      3.36225902	     14.37642021	      0.19250266	      0.99641430	     -0.02637415	      0.30368002	     -2.71095079	     -0.05589626	     11.44776231	      0.19980114	      8.15779218	    -19.38996935	     -7.49999987	      9.04619958	     -3.30659007	      9.13303740	     13.32648229	      0.23259099	     11.87313458	    -11.21331252	     -7.49999987	    -11.19119791	     -3.70639205	     15.23582467	     52.71513974	    -11.96527007	     36.18644593	     93.73615903	     84.64871525	     22.87147274	    -16.45692661	      7.47440298	    101.36628641	     59.66497922
